<svg width="23" height="36" viewBox="0 0 23 36" fill="none" xmlns="http://www.w3.org/2000/svg">
<path fill-rule="evenodd" clip-rule="evenodd" d="M11.2516 0C11.5831 0 11.901 0.131696 12.1355 0.366116C12.3699 0.600537 12.5016 0.918479 12.5016 1.25V30.7325L20.3666 22.865C20.6013 22.6303 20.9196 22.4984 21.2516 22.4984C21.5835 22.4984 21.9019 22.6303 22.1366 22.865C22.3713 23.0997 22.5032 23.4181 22.5032 23.75C22.5032 24.0819 22.3713 24.4003 22.1366 24.635L12.1366 34.635C12.0205 34.7514 11.8825 34.8438 11.7307 34.9068C11.5788 34.9698 11.416 35.0022 11.2516 35.0022C11.0872 35.0022 10.9244 34.9698 10.7725 34.9068C10.6206 34.8438 10.4827 34.7514 10.3666 34.635L0.366579 24.635C0.131862 24.4003 -7.82076e-09 24.0819 0 23.75C7.82076e-09 23.4181 0.131862 23.0997 0.366579 22.865C0.601295 22.6303 0.91964 22.4984 1.25158 22.4984C1.58352 22.4984 1.90186 22.6303 2.13658 22.865L10.0016 30.7325V1.25C10.0016 0.918479 10.1333 0.600537 10.3677 0.366116C10.6021 0.131696 10.9201 0 11.2516 0Z" fill="#AAAAAA"/>
</svg>
